<svg xmlns="http://www.w3.org/2000/svg" width="1120" height="848" viewBox="0 0 1120 848" role="img">
  <rect width="100%" height="100%" fill="#ffffff"/>
  <text x="32.0" y="42.0" font-family="Arial, sans-serif" font-size="24" font-weight="700" fill="#111827" text-anchor="start">Subfuncoes de Saude e Educacao em Maceio (2024)</text>
  <text x="32.0" y="70.0" font-family="Arial, sans-serif" font-size="14" font-weight="400" fill="#4b5563" text-anchor="start">Comparacao entre despesa empenhada e paga</text>
  <line x1="32" y1="84" x2="1088" y2="84" stroke="#e5e7eb" stroke-width="1"/>
  <rect x="805" y="35" width="14" height="14" fill="#93c5fd"/>
  <text x="828.0" y="47.0" font-family="Arial, sans-serif" font-size="13" font-weight="400" fill="#374151" text-anchor="start">Empenhado</text>
  <rect x="925" y="35" width="14" height="14" fill="#2563eb"/>
  <text x="948.0" y="47.0" font-family="Arial, sans-serif" font-size="13" font-weight="400" fill="#374151" text-anchor="start">Pago</text>
  <text x="244.0" y="130.0" font-family="Arial, sans-serif" font-size="14" font-weight="400" fill="#374151" text-anchor="end">10.302 - Assistência Hospitalar...</text>
  <rect x="260" y="96" width="700.0" height="20" rx="3" fill="#93c5fd"/>
  <rect x="260" y="122" width="676.1" height="20" rx="3" fill="#2563eb"/>
  <text x="972.0" y="130.0" font-family="Arial, sans-serif" font-size="13" font-weight="400" fill="#374151" text-anchor="start">R$ 739,1 mi</text>
  <text x="244.0" y="198.0" font-family="Arial, sans-serif" font-size="14" font-weight="400" fill="#374151" text-anchor="end">10.301 - Atenção Básica</text>
  <rect x="260" y="164" width="320.6" height="20" rx="3" fill="#93c5fd"/>
  <rect x="260" y="190" width="317.3" height="20" rx="3" fill="#2563eb"/>
  <text x="592.6" y="198.0" font-family="Arial, sans-serif" font-size="13" font-weight="400" fill="#374151" text-anchor="start">R$ 346,9 mi</text>
  <text x="244.0" y="266.0" font-family="Arial, sans-serif" font-size="14" font-weight="400" fill="#374151" text-anchor="end">12.361 - Ensino Fundamental</text>
  <rect x="260" y="232" width="273.8" height="20" rx="3" fill="#93c5fd"/>
  <rect x="260" y="258" width="266.4" height="20" rx="3" fill="#2563eb"/>
  <text x="545.8" y="266.0" font-family="Arial, sans-serif" font-size="13" font-weight="400" fill="#374151" text-anchor="start">R$ 291,3 mi</text>
  <text x="244.0" y="334.0" font-family="Arial, sans-serif" font-size="14" font-weight="400" fill="#374151" text-anchor="end">12.122 - Administração Geral</text>
  <rect x="260" y="300" width="215.3" height="20" rx="3" fill="#93c5fd"/>
  <rect x="260" y="326" width="177.0" height="20" rx="3" fill="#2563eb"/>
  <text x="487.3" y="334.0" font-family="Arial, sans-serif" font-size="13" font-weight="400" fill="#374151" text-anchor="start">R$ 193,6 mi</text>
  <text x="244.0" y="402.0" font-family="Arial, sans-serif" font-size="14" font-weight="400" fill="#374151" text-anchor="end">12.368 - Educação Básica</text>
  <rect x="260" y="368" width="186.8" height="20" rx="3" fill="#93c5fd"/>
  <rect x="260" y="394" width="129.5" height="20" rx="3" fill="#2563eb"/>
  <text x="458.8" y="402.0" font-family="Arial, sans-serif" font-size="13" font-weight="400" fill="#374151" text-anchor="start">R$ 141,6 mi</text>
  <text x="244.0" y="470.0" font-family="Arial, sans-serif" font-size="14" font-weight="400" fill="#374151" text-anchor="end">10.122 - Administração Geral</text>
  <rect x="260" y="436" width="71.5" height="20" rx="3" fill="#93c5fd"/>
  <rect x="260" y="462" width="70.6" height="20" rx="3" fill="#2563eb"/>
  <text x="343.5" y="470.0" font-family="Arial, sans-serif" font-size="13" font-weight="400" fill="#374151" text-anchor="start">R$ 77,2 mi</text>
  <text x="244.0" y="538.0" font-family="Arial, sans-serif" font-size="14" font-weight="400" fill="#374151" text-anchor="end">10.305 - Vigilância Epidemiológica</text>
  <rect x="260" y="504" width="63.7" height="20" rx="3" fill="#93c5fd"/>
  <rect x="260" y="530" width="62.7" height="20" rx="3" fill="#2563eb"/>
  <text x="335.7" y="538.0" font-family="Arial, sans-serif" font-size="13" font-weight="400" fill="#374151" text-anchor="start">R$ 68,6 mi</text>
  <text x="244.0" y="606.0" font-family="Arial, sans-serif" font-size="14" font-weight="400" fill="#374151" text-anchor="end">12.365 - Educação Infantil</text>
  <rect x="260" y="572" width="47.6" height="20" rx="3" fill="#93c5fd"/>
  <rect x="260" y="598" width="46.0" height="20" rx="3" fill="#2563eb"/>
  <text x="319.6" y="606.0" font-family="Arial, sans-serif" font-size="13" font-weight="400" fill="#374151" text-anchor="start">R$ 50,2 mi</text>
  <text x="244.0" y="674.0" font-family="Arial, sans-serif" font-size="14" font-weight="400" fill="#374151" text-anchor="end">10.303 - Suporte Profilático e...</text>
  <rect x="260" y="640" width="22.9" height="20" rx="3" fill="#93c5fd"/>
  <rect x="260" y="666" width="20.8" height="20" rx="3" fill="#2563eb"/>
  <text x="294.9" y="674.0" font-family="Arial, sans-serif" font-size="13" font-weight="400" fill="#374151" text-anchor="start">R$ 22,8 mi</text>
  <text x="244.0" y="742.0" font-family="Arial, sans-serif" font-size="14" font-weight="400" fill="#374151" text-anchor="end">10.304 - Vigilância Sanitária</text>
  <rect x="260" y="708" width="7.5" height="20" rx="3" fill="#93c5fd"/>
  <rect x="260" y="734" width="7.4" height="20" rx="3" fill="#2563eb"/>
  <text x="279.5" y="742.0" font-family="Arial, sans-serif" font-size="13" font-weight="400" fill="#374151" text-anchor="start">R$ 8,1 mi</text>
</svg>
